<?xml version="1.0" encoding="UTF-8"?>
<svg id="Warstwa_2" data-name="Warstwa 2" xmlns="http://www.w3.org/2000/svg" xmlns:xlink="http://www.w3.org/1999/xlink" viewBox="0 0 318.77 84.8">
  <defs>
    <style>
      .cls-1 {
        clip-path: url(#clippath);
      }

      .cls-2 {
        fill: none;
      }

      .cls-3 {
        fill: #1d1d1b;
      }
    </style>
    <clipPath id="clippath">
      <rect class="cls-2" width="318.77" height="84.8"/>
    </clipPath>
  </defs>
  <g id="Tryb_izolacji" data-name="Tryb izolacji">
    <g class="cls-1">
      <path class="cls-3" d="m116.37,65.94h-11.58v18.38h3.48v-7.76h8.1c5.59,0,7.63-2.89,7.63-5.45,0-2.97-2.87-5.17-7.63-5.17m-1.18,8.5h-6.92v-6.38h7.06c2.87,0,5.09.74,5.09,3.07,0,2.48-2.11,3.3-5.23,3.3"/>
      <path class="cls-3" d="m176.56,84.19h-3.92l-5.25-7.46c-.07-.1-.19-.15-.32-.17h.17c-.05,0-.11-.01-.17,0h-7.05v7.76h-3.48v-18.38h11.58c4.77,0,7.64,2.2,7.64,5.17,0,2.12-1.41,4.45-5.05,5.2l5.86,7.88Zm-16.55-9.75h6.92c3.12,0,5.23-.82,5.23-3.3,0-2.33-2.23-3.07-5.09-3.07h-7.06v6.38Z"/>
      <path class="cls-3" d="m135.64,65.94l-10.71,18.38h3.97l2.97-5.35h11.43l2.82,5.35h4.21l-10.32-18.38h-4.36Zm-2.58,10.83l4.56-8.09h.08l4.21,8.09h-8.85Z"/>
      <path class="cls-3" d="m209.91,74.41l-7.09-1.2c-1.45-.26-2.94-.77-2.94-2.33,0-2.79,3.56-3.23,5.67-3.23,2.8,0,5.98.9,6.15,3.74h3.15c-.14-2.02-1-5.86-9.68-5.86-6.01,0-8.54,2.81-8.54,5.68,0,3.2,3.66,4.04,5.29,4.33l5.08.87c4.08.72,5.29,1.33,5.29,3.25,0,2.64-4.08,3.1-6.5,3.1-3.18,0-6.84-.97-6.84-4.3h-3.15c0,1.72.42,3.25,2.52,4.66,1.11.74,2.9,1.77,7.5,1.77,4.25,0,9.71-1.2,9.71-5.55,0-2.92-2.42-4.35-5.63-4.92"/>
      <rect class="cls-3" x="184.7" y="65.84" width="3.3" height="3.3"/>
      <rect class="cls-3" x="184.72" y="71.08" width="3.3" height="13.14"/>
      <polygon class="cls-3" points="173.42 53.71 214.56 53.71 214.56 48.69 180.48 48.69 180.48 32.61 206.08 32.61 206.08 27.53 180.48 27.53 180.48 12.72 214.56 12.72 214.56 7.71 173.42 7.71 173.42 53.71"/>
      <polygon class="cls-3" points="194.8 .28 189.23 6.53 206.71 .28 194.8 .28"/>
      <polygon class="cls-3" points="283.62 48.69 283.62 7.71 277.19 7.71 277.19 53.71 318.77 53.71 318.77 48.69 283.62 48.69"/>
      <path class="cls-3" d="m241.22,7.71l-23.39,46.01h7.9l5.99-11.9h28.05l6.04,11.9h7.82l-23.41-46.01h-9.01Zm-6.54,28.34l11.02-21.97,11.16,21.97h-22.18Z"/>
      <path class="cls-3" d="m151.1,34.48c10.54-2.81,11.57-10.66,11.52-13.46-.63-8.22-6.17-13.31-16.12-13.31h-28.99v46.01h6.61v-19.3h18.87l13.89,19.3h8.33s-9.99-12.99-14.1-19.24m-5.51-5.5h-21.48v-15.82h22.23c5.12,0,7.99,2.39,9.03,5.42.69,2.08.24,4.82-.89,6.67-1.86,3.08-5.39,3.73-8.9,3.73"/>
      <path class="cls-3" d="m77.78-.08c-18.66,0-31.37,13.15-31.37,29.08,0,16.76,14.05,28.59,31.37,28.59s31.36-11.66,31.36-28.59C109.14,13.07,96.26-.08,77.78-.08m-.22,51.96c-12.91,0-23.55-10.37-23.55-22.87s10.14-23.36,24.04-23.36,23.54,10.87,23.54,23.36-11.14,22.87-24.04,22.87"/>
      <polygon class="cls-3" points="29.75 23.98 34.52 23.98 43.18 7.71 36.21 7.71 29.75 23.98"/>
      <polygon class="cls-3" points="6.43 48.69 6.43 7.71 0 7.71 0 53.71 41.59 53.71 41.59 48.69 6.43 48.69"/>
    </g>
  </g>
</svg>