<?xml version="1.0" encoding="UTF-8"?>
<svg id="Warstwa_2" data-name="Warstwa 2" xmlns="http://www.w3.org/2000/svg" viewBox="0 0 419.58 94.22">
  <defs>
    <style>
      .cls-1 {
        fill: #1d1d1b;
      }
    </style>
  </defs>
  <g id="_warstwa_" data-name="&amp;lt;warstwa&amp;gt;">
    <path class="cls-1" d="m170.44,40.56h0c-19.4-4.1-22.82-8.29-22.82-15.6s7.07-12.4,17.19-12.4c9.04,0,16.87,2.91,24.65,9.15l1.48,1.19,8.1-10.58-1.4-1.1c-9.94-7.86-19.69-11.22-32.58-11.22-18.1,0-31.23,10.98-31.23,26.1,0,16.97,12.59,23.15,31.49,27.19,18.53,3.85,21.79,7.97,21.79,15.21,0,7.75-7.44,13.16-18.09,13.16-11.35,0-19.87-3.47-29.43-11.99l-1.42-1.25-8.64,10.07,1.33,1.17c11.29,9.93,23.29,14.55,37.77,14.55,19.07,0,32.38-11.09,32.38-26.98,0-14.1-9.15-22.08-30.59-26.68"/>
    <path class="cls-1" d="m360.26,1.26h-15.27l-30.59,72.93L284.24,2.27l-.63-1.02h-15.05l37.95,87.53c.25.57.59,1.13,1.08,1.74,1.54,1.94,3.84,3.06,6.31,3.06h1.02c2.47,0,4.76-1.11,6.31-3.06.49-.62.84-1.18,1.08-1.74L359.81,2.29l.45-1.03Z"/>
    <path class="cls-1" d="m13.78,76.92v-23.91h40.72v-12.68H13.78v-23.2c0-1.79,1.48-3.24,3.3-3.24h43.17V1.2H16.08C7.21,1.2,0,8.3,0,17.04v60.08c0,8.7,7.19,15.78,16.02,15.78h44.86v-12.69H17.12c-1.84,0-3.34-1.48-3.34-3.29"/>
    <path class="cls-1" d="m220.36,76.92v-23.91h40.71v-12.68h-40.71v-23.2c0-1.79,1.48-3.24,3.29-3.24h43.18V1.2h-44.16c-8.87,0-16.09,7.1-16.09,15.84v60.08c0,8.7,7.19,15.78,16.02,15.78h44.86v-12.69h-43.76c-1.84,0-3.34-1.48-3.34-3.29"/>
    <path class="cls-1" d="m375.81,80.21c-1.84,0-3.34-1.48-3.34-3.29v-23.91h40.72v-12.68h-40.72v-23.2c0-1.79,1.48-3.24,3.3-3.24h43.17V1.2h-44.16c-8.87,0-16.09,7.1-16.09,15.84v60.08c0,8.7,7.19,15.78,16.02,15.78h44.86v-12.69h-43.76Z"/>
    <path class="cls-1" d="m82.78,76.92V1.21h-13.78v75.91c0,8.7,7.19,15.78,16.02,15.78h44.86v-12.69h-43.76c-1.84,0-3.34-1.48-3.34-3.29"/>
  </g>
</svg>